<!--?xml version="1.0" standalone="no"?-->

<svg version="1.0" xmlns="http://www.w3.org/2000/svg" width="232.000000pt" height="300.000000pt" viewBox="0 0 232.000000 300.000000" preserveAspectRatio="xMidYMid meet">
<g transform="translate(0.000000,300.000000) scale(0.100000,-0.100000)" fill="#0A0A0A" stroke="none">
<path class="node" id="node1" d="M823 2896 c-191 -61 -283 -179 -283 -362 0 -75 39 -211 80 -279 73
-123 150 -318 165 -417 l6 -48 -63 0 c-71 0 -233 -23 -323 -45 -140 -35 -262
-120 -311 -217 -47 -94 -26 -242 50 -342 l33 -43 -18 -34 c-58 -110 -20 -228
92 -285 l49 -24 0 -58 c1 -111 61 -181 171 -200 l44 -8 6 -62 c7 -70 26 -103
79 -139 48 -34 94 -45 204 -50 87 -5 103 -3 136 16 l37 21 89 -20 c49 -11 125
-20 169 -20 68 0 89 4 142 29 121 58 262 165 377 288 l48 53 156 2 156 3 33
104 c42 137 54 220 54 376 -1 178 -12 241 -77 417 l-25 67 -168 3 c-166 3
-168 3 -204 31 -20 15 -95 106 -167 201 -83 111 -201 249 -326 382 -108 114
-202 217 -209 228 -7 12 -16 39 -20 61 -3 22 -19 94 -35 160 -15 66 -33 146
-40 178 -6 32 -17 57 -23 56 -7 0 -44 -11 -84 -23z m54 -217 c12 -57 30 -141
40 -187 9 -46 21 -89 27 -95 366 -386 426 -452 548 -615 116 -153 184 -227
224 -243 16 -5 94 -15 174 -21 80 -5 148 -15 151 -20 4 -6 19 -60 35 -122 25
-98 28 -129 28 -261 0 -146 -14 -236 -54 -340 l-10 -25 -140 0 -140 0 -22 -27
c-63 -79 -234 -235 -324 -296 l-101 -67 -86 0 c-47 0 -89 5 -92 10 -3 6 13 19
37 29 24 10 78 35 121 55 l78 36 -28 51 c-15 29 -52 77 -80 108 -29 31 -53 57
-53 59 0 2 26 15 58 28 31 14 59 27 60 29 8 8 -81 126 -122 162 -26 22 -46 43
-46 46 0 3 16 11 35 17 19 6 35 14 35 16 0 3 -9 24 -21 47 -25 49 -101 132
-142 153 -23 12 -26 18 -16 30 6 8 17 14 25 14 25 0 25 21 -2 71 -41 74 -128
151 -205 180 -89 33 -209 33 -294 -1 -43 -17 -88 -25 -159 -29 l-98 -6 42 -47
c39 -44 45 -48 88 -48 27 0 84 13 132 30 116 41 166 46 234 25 59 -19 146 -85
146 -111 0 -8 -19 -23 -42 -33 -24 -10 -63 -27 -88 -39 -25 -11 -90 -40 -145
-65 l-100 -44 -110 6 c-128 8 -168 25 -232 93 -43 47 -83 138 -83 189 0 105
91 187 255 229 77 20 287 40 413 40 l75 0 -7 88 c-13 170 -52 287 -167 492
-88 159 -106 241 -74 347 10 33 29 65 55 91 40 40 116 85 134 79 5 -2 20 -50
33 -108z m113 -1532 c43 -25 100 -77 100 -92 0 -6 -55 -35 -122 -65 -68 -29
-151 -66 -186 -82 -60 -27 -68 -28 -225 -28 -190 0 -251 13 -291 61 -29 34
-35 92 -12 122 13 16 16 16 57 0 33 -12 79 -16 184 -17 l140 -1 140 67 c147
69 155 71 215 35z m95 -246 c38 -24 95 -77 95 -89 0 -9 -17 -17 -243 -117
l-149 -65 -122 0 c-140 0 -215 17 -252 57 -26 28 -34 93 -11 93 6 1 83 1 169
0 l157 -1 153 70 c84 39 158 71 163 71 6 0 24 -9 40 -19z m82 -297 c29 -31 53
-62 53 -69 0 -12 -41 -32 -244 -122 -110 -48 -165 -54 -252 -28 -60 18 -100
57 -109 108 l-7 37 103 0 c81 0 111 4 143 19 100 48 242 111 251 111 5 0 33
-25 62 -56z"></path>
</g>
<g transform="translate(0.000000,300.000000) scale(0.100000,-0.100000)" fill="#FFFFFF" stroke="none">

<path class="node" id="node3" d="M793 2769 c-65 -32 -121 -93 -138 -152 -32 -106 -14 -188 74 -347
115 -205 154 -322 167 -492 l7 -88 -75 0 c-126 0 -336 -20 -413 -40 -164 -42
-255 -124 -255 -229 0 -51 40 -142 83 -189 64 -68 104 -85 232 -93 l110 -6
100 44 c55 25 120 54 145 65 25 12 64 29 88 39 23 10 42 25 42 33 0 26 -87 92
-146 111 -68 21 -118 16 -234 -25 -48 -17 -105 -30 -132 -30 -43 0 -49 4 -88
48 l-42 47 98 6 c71 4 116 12 159 29 85 34 205 34 294 1 77 -29 164 -106 205
-180 27 -50 27 -71 2 -71 -8 0 -19 -6 -25 -14 -10 -12 -7 -18 16 -30 41 -21
117 -104 142 -153 12 -23 21 -44 21 -47 0 -2 -16 -10 -35 -16 -19 -6 -35 -14
-35 -17 0 -3 20 -24 46 -46 41 -36 130 -154 122 -162 -1 -2 -29 -15 -60 -29
-32 -13 -58 -26 -58 -28 0 -2 24 -28 53 -59 28 -31 65 -79 80 -108 l28 -51
-78 -36 c-43 -20 -97 -45 -121 -55 -24 -10 -40 -23 -37 -29 3 -5 45 -10 92
-10 l86 0 101 67 c90 61 261 217 324 296 l22 27 140 0 140 0 10 25 c40 104 54
194 54 340 0 132 -3 163 -28 261 -16 62 -31 116 -35 122 -3 5 -71 15 -151 20
-80 6 -158 16 -174 21 -40 16 -108 90 -224 243 -122 163 -182 229 -548 615 -6
6 -18 49 -27 95 -35 172 -64 292 -73 295 -5 2 -28 -6 -51 -18z"></path>
<path class="node" id="node4" d="M775 1112 l-140 -67 -140 1 c-105 1 -151 5 -184 17 -41 16 -44 16
-57 0 -23 -30 -17 -88 12 -122 40 -48 101 -61 291 -61 157 0 165 1 225 28 35
16 118 53 186 82 67 30 122 59 122 65 0 25 -106 105 -155 118 -12 3 -74 -21
-160 -61z"></path>
<path class="node" id="node5" d="M882 849 l-153 -70 -157 1 c-86 1 -163 1 -169 0 -23 0 -15 -65 11
-93 37 -40 112 -57 252 -57 l122 0 149 65 c226 100 243 108 243 117 0 20 -110
108 -135 108 -5 0 -79 -32 -163 -71z"></path>
<path class="node" id="node6" d="M995 614 c-55 -25 -118 -54 -141 -65 -32 -15 -62 -19 -143 -19 l-103
0 7 -37 c9 -51 49 -90 109 -108 87 -26 142 -20 252 28 203 90 244 110 244 122
0 16 -102 125 -115 125 -6 0 -55 -21 -110 -46z"></path>
</g>
</svg>